<svg
   viewBox="0 0 388.332 279.12399"
   fill="none"
   xmlns="http://www.w3.org/2000/svg">
  <path
     fill="#ffffff"
     d="M 339.793,0 H 48.543 C 35.672,0.0117 23.332,5.1289 14.234,14.23 5.1324,23.3316 0.015,35.671 0,48.542 v 182.04 c 0.0156,12.871 5.1328,25.211 14.234,34.312 9.0977,9.0977 21.438,14.219 34.309,14.23 h 291.25 c 12.867,-0.0117 25.207,-5.1328 34.309,-14.23 9.1016,-9.1016 14.219,-21.441 14.23,-34.312 V 48.542 C 388.3203,35.671 383.2031,23.331 374.102,14.23 365.0004,5.1284 352.661,0.011 339.793,0 Z M 117.773,178.49 69.23,227.033 c -4.7461,4.7344 -12.434,4.7227 -17.168,-0.0234 -4.7344,-4.75 -4.7227,-12.434 0.0234,-17.168 l 48.543,-48.543 c 4.7539,-4.6172 12.332,-4.5625 17.02,0.125 4.688,4.6875 4.7422,12.266 0.125,17.02 z m 76.387,15.676 c -2.7695,0.0664 -5.4766,-0.81641 -7.6719,-2.5117 l -133.5,-109.44 c -5.2305,-4.25 -6.0273,-11.938 -1.7773,-17.168 4.25,-5.23 11.938,-6.0273 17.168,-1.7773 l 125.78,103.1 125.79,-102.96 c 5.2305,-4.25 12.918,-3.4531 17.168,1.7773 4.25,5.2304 3.4531,12.918 -1.7773,17.168 l -133.5,109.3 c -2.1914,1.6953 -4.9023,2.5781 -7.6719,2.5117 z m 142.07,32.867 c -4.7344,4.7344 -12.406,4.7344 -17.141,0 L 270.546,178.49 c -2.3281,-2.2617 -3.6523,-5.3633 -3.6758,-8.6094 -0.0234,-3.2461 1.2539,-6.3633 3.5508,-8.6602 2.293,-2.2969 5.4141,-3.5742 8.6602,-3.5508 3.2461,0.0234 6.3477,1.3477 8.6094,3.6758 l 48.539,48.496 c 2.2891,2.2734 3.5742,5.3672 3.5742,8.5938 0,3.2266 -1.2852,6.3203 -3.5742,8.5977 z"
     />
</svg>
