<svg width="23" height="23" viewBox="0 0 23 23" fill="none" xmlns="http://www.w3.org/2000/svg">
<path d="M12.7891 0.00881643C15.2054 0.119092 18.0743 1.44734 20.2859 4.05281C22.1814 6.22357 23.149 9.04754 22.9814 11.9203C22.9316 13.4387 22.5791 14.9322 21.9445 16.3136C21.3099 17.695 20.4059 18.9368 19.2851 19.9667C18.1643 20.9966 16.849 21.794 15.416 22.3125C13.9829 22.8309 12.4607 23.0601 10.9379 22.9866C9.41511 22.9131 7.9222 22.5385 6.54611 21.8845C5.17002 21.2305 3.93824 20.3102 2.9225 19.1772C1.90676 18.0442 1.12735 16.7212 0.629665 15.2852C0.131979 13.8491 -0.0740433 12.3287 0.0235965 10.8126C0.391912 4.20918 6.00913 -0.224903 12.7891 0.00881643ZM9.32066 7.66559C9.53207 7.64419 9.74348 7.63102 9.95324 7.60139C10.8583 7.47795 11.5355 6.3324 10.9442 5.46171C10.6364 5.0065 10.2864 4.58108 9.89874 4.19107C9.61426 3.92283 9.28935 3.70067 8.93583 3.53271C8.74447 3.43212 8.53091 3.38078 8.31458 3.38337C8.09824 3.38596 7.88599 3.44238 7.6971 3.54752C7.11311 3.8404 6.55983 4.19051 6.04547 4.59267C5.02319 5.40557 4.19455 6.43427 3.61921 7.60469C3.59992 7.63554 3.58697 7.6699 3.5811 7.70577C3.57523 7.74164 3.57656 7.77832 3.585 7.81368C3.59345 7.84904 3.60885 7.88238 3.63032 7.91177C3.65178 7.94116 3.67888 7.96601 3.71005 7.98489C3.80178 8.05225 3.91166 8.09067 4.02551 8.09517C4.24305 8.0943 4.45976 8.06834 4.6713 8.01781C5.48601 7.79089 6.32366 7.65563 7.16858 7.61456C7.88374 7.59317 9.31406 7.64583 9.31406 7.66559H9.32066ZM13.8065 15.1857C13.5422 15.2071 13.273 15.2088 13.0137 15.2549C12.7967 15.2936 12.5916 15.3819 12.4145 15.5128C12.2375 15.6438 12.0933 15.8139 11.9933 16.0097C11.8933 16.2055 11.8401 16.4218 11.8381 16.6415C11.836 16.8612 11.8851 17.0784 11.9814 17.276C12.1013 17.4926 12.2412 17.6976 12.3993 17.8883C12.8106 18.4232 13.2565 18.9269 13.8676 19.2446C14.269 19.4536 14.6934 19.5737 15.1394 19.3762C16.9765 18.5397 18.4668 17.0959 19.3577 15.2894C19.3853 15.2452 19.4019 15.195 19.4063 15.1431C19.4106 15.0912 19.4026 15.039 19.3827 14.9908C19.3629 14.9426 19.3319 14.8998 19.2922 14.8659C19.2525 14.8319 19.2053 14.8079 19.1545 14.7957C19.0145 14.7589 18.8686 14.75 18.7251 14.7693C18.4733 14.8041 18.2239 14.8547 17.9785 14.9208C17.2165 15.1254 16.4322 15.236 15.6431 15.2499C15.032 15.2499 13.8065 15.2022 13.8065 15.1857ZM11.4595 20.1531C11.6726 20.1531 11.884 20.1646 12.0954 20.1531C12.1806 20.1409 12.2576 20.096 12.3101 20.028C12.3674 19.9416 12.3924 19.8378 12.3806 19.7349C12.3688 19.632 12.3211 19.5365 12.2457 19.4651C12.0426 19.189 11.8219 18.9263 11.5851 18.6784C10.7741 17.8554 10.1713 16.8909 9.63117 15.8803C9.42564 15.4514 9.18477 15.0401 8.91106 14.6508C8.76557 14.4679 8.5763 14.3244 8.36062 14.2335C8.14495 14.1425 7.9098 14.1071 7.67678 14.1304C7.44376 14.1536 7.22035 14.2349 7.02707 14.3667C6.8338 14.4985 6.67686 14.6765 6.57069 14.8845C6.42577 15.1698 6.29782 15.4632 6.18751 15.7635C5.97168 16.2708 5.86371 16.8172 5.87039 17.3682C5.89352 17.8225 6.00252 18.257 6.40717 18.5434C7.87751 19.5995 9.64712 20.1616 11.4595 20.1482V20.1531ZM11.552 2.70646C11.3274 2.70646 11.1028 2.69494 10.8798 2.70646C10.8371 2.71372 10.7963 2.72958 10.76 2.75307C10.7236 2.77656 10.6925 2.80718 10.6684 2.84307C10.533 3.04881 10.6255 3.24961 10.7526 3.41256C10.9635 3.68514 11.189 3.94613 11.4282 4.19436C12.2066 5.03001 12.8612 5.97222 13.3721 6.99241C13.5752 7.4099 13.8104 7.81106 14.0757 8.19228C14.6521 8.95927 15.9883 8.87204 16.4326 7.93551C16.5301 7.72813 16.6242 7.51745 16.7101 7.30513C16.9529 6.70273 17.1511 6.08716 17.1114 5.42715C17.0867 5.00909 16.9942 4.58938 16.6275 4.33756C16.1906 4.03425 15.7325 3.76253 15.2566 3.52448C14.1049 2.96016 12.8353 2.67642 11.552 2.69659V2.70646ZM2.71411 11.4495C2.73724 11.7491 2.75706 12.0684 2.78844 12.3861C2.93084 13.7665 3.40936 15.0914 4.18242 16.2457C4.20911 16.2944 4.2477 16.3355 4.2946 16.3653C4.34151 16.3951 4.39521 16.4127 4.45073 16.4163C4.50625 16.4199 4.56179 16.4095 4.61218 16.386C4.66258 16.3625 4.70621 16.3267 4.73902 16.2819C4.84268 16.1563 4.92371 16.0138 4.97851 15.8606C5.12881 15.4343 5.24442 14.9948 5.39802 14.5702C5.77576 13.5696 6.27496 12.6189 6.8845 11.7392C7.09483 11.4377 7.27046 11.1137 7.40807 10.7731C7.48888 10.5511 7.51267 10.3125 7.47728 10.079C7.4419 9.84548 7.34845 9.62451 7.20546 9.43621C7.06247 9.2479 6.87447 9.09824 6.6586 9.00085C6.44272 8.90346 6.20583 8.86144 5.96949 8.87862C5.57733 8.91038 5.1874 8.96534 4.80178 9.04321C4.22206 9.16007 3.66215 9.33947 3.21786 9.75753C3.09495 9.85638 2.99296 9.97858 2.91782 10.117C2.84269 10.2555 2.7959 10.4074 2.78018 10.564C2.76201 10.8521 2.73558 11.1401 2.71411 11.4495ZM20.238 11.4183C20.238 11.201 20.238 10.9837 20.238 10.7599C20.238 10.6578 20.2132 10.5558 20.2033 10.4538C20.0557 9.06219 19.568 7.72791 18.7829 6.56776C18.761 6.52822 18.7305 6.49414 18.6935 6.4681C18.6565 6.44207 18.614 6.42475 18.5693 6.41745C18.5246 6.41016 18.4788 6.41309 18.4354 6.42601C18.392 6.43893 18.3521 6.46152 18.3188 6.49205C18.249 6.54682 18.1925 6.61659 18.1536 6.69614C18.0512 6.91999 17.9554 7.14877 17.8745 7.38084C17.7308 7.79067 17.6218 8.21367 17.4599 8.61528C17.0806 9.54614 16.594 10.4299 16.0098 11.2487C15.7353 11.5902 15.56 12 15.5027 12.4338C15.435 13.3588 16.2196 14.0682 17.1709 13.9563C17.4236 13.925 17.6763 13.8954 17.9273 13.8542C18.5467 13.7489 19.1496 13.5909 19.6566 13.1958C19.9359 13.0076 20.1294 12.7172 20.195 12.3877C20.2333 12.066 20.2476 11.742 20.238 11.4183ZM11.4992 8.97573C11.0124 8.9728 10.5357 9.11409 10.1296 9.38167C9.7236 9.64925 9.4065 10.031 9.21862 10.4786C9.03075 10.9261 8.98057 11.4192 9.07445 11.8952C9.16834 12.3712 9.40205 12.8086 9.74592 13.152C10.0898 13.4954 10.5283 13.7292 11.0058 13.8237C11.4832 13.9182 11.9781 13.8692 12.4276 13.6829C12.8771 13.4966 13.2608 13.1814 13.5302 12.7773C13.7995 12.3732 13.9422 11.8984 13.9403 11.4133C13.9373 10.7686 13.6793 10.1511 13.2223 9.69476C12.7652 9.23842 12.1461 8.98005 11.4992 8.97573ZM13.3556 20.4527C13.2424 20.4522 13.1336 20.4961 13.0526 20.575C12.9716 20.6538 12.9251 20.7612 12.9229 20.874C12.9186 20.932 12.9264 20.9903 12.9456 21.0452C12.9648 21.1002 12.9951 21.1506 13.0346 21.1934C13.0741 21.2363 13.122 21.2706 13.1753 21.2943C13.2286 21.318 13.2862 21.3305 13.3446 21.3312C13.4029 21.3319 13.4608 21.3207 13.5147 21.2982C13.5685 21.2757 13.6172 21.2425 13.6577 21.2006C13.6982 21.1587 13.7296 21.109 13.7501 21.0545C13.7706 21.0001 13.7797 20.942 13.7768 20.8839C13.776 20.7717 13.7317 20.6642 13.6532 20.5839C13.5747 20.5035 13.4681 20.4565 13.3556 20.4527ZM12.4802 1.82096C12.4802 1.71009 12.436 1.60375 12.3574 1.52535C12.2787 1.44695 12.172 1.4029 12.0607 1.4029C11.9495 1.4029 11.8428 1.44695 11.7641 1.52535C11.6854 1.60375 11.6412 1.71009 11.6412 1.82096C11.6412 1.93184 11.6854 2.03817 11.7641 2.11658C11.8428 2.19498 11.9495 2.23902 12.0607 2.23902C12.172 2.23902 12.2787 2.19498 12.3574 2.11658C12.436 2.03817 12.4802 1.93184 12.4802 1.82096ZM3.47717 5.61972C3.39179 5.6181 3.30785 5.64178 3.236 5.68776C3.16414 5.73375 3.10761 5.79997 3.07358 5.87801C3.03955 5.95606 3.02954 6.04243 3.04483 6.12615C3.06012 6.20987 3.10002 6.28718 3.15947 6.34828C3.21892 6.40937 3.29523 6.45149 3.37874 6.4693C3.46224 6.4871 3.54917 6.47979 3.6285 6.44829C3.70783 6.4168 3.77599 6.36253 3.82432 6.29237C3.87266 6.22221 3.89899 6.13933 3.89999 6.05424C3.89963 5.94137 3.85537 5.83303 3.77652 5.752C3.69767 5.67097 3.59037 5.62355 3.47717 5.61972ZM10.0639 1.96086C10.0624 1.84781 10.0158 1.73998 9.93452 1.66112C9.85321 1.58225 9.7438 1.53881 9.63034 1.54033C9.51689 1.54186 9.40869 1.58824 9.32955 1.66927C9.25042 1.75029 9.20682 1.85933 9.20835 1.97239C9.20988 2.08545 9.25642 2.19327 9.33773 2.27213C9.37799 2.31118 9.42557 2.34195 9.47776 2.36267C9.52995 2.38339 9.58573 2.39367 9.64191 2.39292C9.69808 2.39216 9.75356 2.38038 9.80517 2.35826C9.85678 2.33614 9.90351 2.3041 9.94269 2.26398C9.98188 2.22387 10.0128 2.17645 10.0335 2.12444C10.0543 2.07243 10.0647 2.01685 10.0639 1.96086ZM1.5877 13.2502C1.58476 13.3634 1.62536 13.4735 1.70119 13.558C1.77702 13.6424 1.88235 13.6948 1.99565 13.7044C2.10896 13.7058 2.2184 13.6634 2.30096 13.5861C2.38351 13.5087 2.43274 13.4024 2.43829 13.2897C2.43821 13.177 2.39549 13.0684 2.31864 12.9858C2.24179 12.9031 2.13648 12.8523 2.02373 12.8436C1.91391 12.8471 1.80911 12.8902 1.72888 12.9651C1.64865 13.0399 1.59847 13.1412 1.5877 13.2502ZM5.75313 2.1699C5.63995 2.17249 5.53234 2.21934 5.45353 2.30033C5.37473 2.38132 5.33106 2.48996 5.33196 2.60277C5.3345 2.71532 5.38061 2.82253 5.46064 2.90198C5.54067 2.98143 5.64843 3.02696 5.76138 3.02906C5.87571 3.02906 5.98536 2.9838 6.0662 2.90324C6.14704 2.82268 6.19246 2.71341 6.19246 2.59948C6.19246 2.48555 6.14704 2.37628 6.0662 2.29572C5.98536 2.21515 5.87571 2.1699 5.76138 2.1699H5.75313ZM16.4656 3.42572C16.4641 3.48168 16.4737 3.53739 16.494 3.58962C16.5142 3.64185 16.5446 3.68955 16.5835 3.72997C16.6224 3.77039 16.6689 3.80271 16.7204 3.82508C16.7719 3.84744 16.8273 3.85939 16.8835 3.86024C16.997 3.85722 17.1047 3.80973 17.1832 3.72807C17.2617 3.64641 17.3048 3.53718 17.303 3.42408C17.3066 3.36708 17.2985 3.30996 17.279 3.25622C17.2596 3.20249 17.2294 3.15329 17.1901 3.11167C17.1509 3.07004 17.1035 3.03686 17.0509 3.01418C16.9983 2.9915 16.9416 2.9798 16.8843 2.9798C16.827 2.9798 16.7703 2.9915 16.7177 3.01418C16.6651 3.03686 16.6178 3.07004 16.5785 3.11167C16.5393 3.15329 16.509 3.20249 16.4896 3.25622C16.4702 3.30996 16.4621 3.36708 16.4656 3.42408V3.42572ZM20.5534 9.56496C20.5521 9.6775 20.5951 9.78608 20.6733 9.86733C20.7514 9.94859 20.8584 9.99604 20.9713 9.99948C21.0811 9.9946 21.1848 9.94815 21.2613 9.86961C21.3379 9.79108 21.3814 9.68639 21.3831 9.57693C21.3848 9.46746 21.3445 9.36149 21.2704 9.28065C21.1963 9.19981 21.0941 9.1502 20.9845 9.14197C20.8715 9.14237 20.763 9.18687 20.6825 9.26592C20.6019 9.34498 20.5556 9.45231 20.5534 9.56496ZM15.9289 2.08925C15.9314 2.20223 15.9777 2.30986 16.058 2.38962C16.1384 2.46938 16.2466 2.51509 16.3599 2.51718C16.47 2.50871 16.5731 2.45999 16.6493 2.38039C16.7255 2.30079 16.7695 2.19593 16.7729 2.08595C16.772 1.97309 16.7274 1.86493 16.6482 1.78421C16.5691 1.70349 16.4616 1.65648 16.3484 1.65308C16.2343 1.65567 16.1259 1.70287 16.0464 1.78448C15.967 1.86609 15.923 1.97556 15.9239 2.08925H15.9289ZM7.61617 2.8118C7.61715 2.75668 7.60722 2.70191 7.58696 2.65062C7.56669 2.59933 7.53649 2.55251 7.49807 2.51285C7.45965 2.47319 7.41377 2.44146 7.36305 2.41947C7.31232 2.39748 7.25775 2.38566 7.20244 2.38469C7.14713 2.38371 7.09217 2.39361 7.0407 2.4138C6.98923 2.43399 6.94225 2.46409 6.90245 2.50238C6.86265 2.54066 6.83081 2.58639 6.80874 2.63694C6.78667 2.68748 6.77481 2.74187 6.77384 2.79699C6.77442 2.90671 6.81662 3.01214 6.89199 3.09213C6.96735 3.17212 7.07029 3.22074 7.18014 3.22821C7.23588 3.22909 7.29125 3.21901 7.34309 3.19855C7.39492 3.17809 7.44221 3.14766 7.48224 3.10899C7.52227 3.07032 7.55426 3.02417 7.57639 2.97318C7.59852 2.92219 7.61036 2.86735 7.61122 2.8118H7.61617ZM20.565 7.13725C20.5666 7.08125 20.5568 7.02551 20.5363 6.97334C20.5158 6.92117 20.485 6.87364 20.4457 6.83357C20.4064 6.79349 20.3595 6.7617 20.3076 6.74007C20.2557 6.71844 20.2001 6.70742 20.1438 6.70767C20.0308 6.70983 19.9232 6.75632 19.8444 6.83705C19.7655 6.91778 19.7218 7.02624 19.7227 7.13889C19.7262 7.24855 19.771 7.35287 19.8481 7.4312C19.9252 7.50954 20.0289 7.55618 20.1389 7.56189C20.1946 7.5619 20.2498 7.55088 20.3012 7.52948C20.3526 7.50808 20.3993 7.47672 20.4385 7.43722C20.4776 7.39773 20.5086 7.35087 20.5294 7.29938C20.5503 7.24789 20.5607 7.19278 20.5601 7.13725H20.565ZM2.84955 16.1354C2.96258 16.132 3.06978 16.0846 3.14818 16.0034C3.22659 15.9222 3.26998 15.8136 3.26906 15.7009C3.26823 15.6449 3.25616 15.5897 3.23358 15.5384C3.21099 15.4872 3.17835 15.441 3.13757 15.4025C3.09678 15.364 3.04868 15.334 2.9961 15.3143C2.94352 15.2946 2.88751 15.2856 2.83138 15.2878C2.72306 15.2963 2.62209 15.3457 2.54912 15.4259C2.47615 15.5061 2.43668 15.6111 2.43879 15.7194C2.4409 15.8276 2.48442 15.931 2.56047 16.0083C2.63651 16.0857 2.73933 16.1311 2.8479 16.1354H2.84955ZM18.7053 5.4469C18.8159 5.44694 18.9221 5.40396 19.0014 5.32711C19.0807 5.25025 19.1267 5.1456 19.1297 5.03542C19.1311 4.92272 19.0881 4.81397 19.01 4.73245C18.9319 4.65093 18.8249 4.60312 18.7119 4.59926C18.6037 4.60598 18.5021 4.65356 18.4278 4.7323C18.3536 4.81105 18.3123 4.91503 18.3123 5.02308C18.3123 5.13113 18.3536 5.23511 18.4278 5.31386C18.5021 5.3926 18.6037 5.44018 18.7119 5.4469H18.7053ZM21.0655 14.4895C21.0655 14.3768 21.0213 14.2686 20.9422 14.188C20.8632 14.1074 20.7557 14.0609 20.6426 14.0583C20.5299 14.0629 20.4232 14.1107 20.3448 14.1916C20.2664 14.2725 20.2222 14.3803 20.2215 14.4928C20.228 14.605 20.2763 14.7107 20.357 14.7893C20.4376 14.8678 20.5448 14.9135 20.6575 14.9175C20.7681 14.912 20.8724 14.8647 20.9492 14.7851C21.0259 14.7056 21.0693 14.5999 21.0704 14.4895H21.0655ZM11.3357 21.0353C11.3344 20.9534 11.3088 20.8737 11.2623 20.8061C11.2157 20.7386 11.1502 20.6862 11.0739 20.6556C10.9977 20.625 10.914 20.6175 10.8335 20.6341C10.753 20.6506 10.6791 20.6904 10.6212 20.7486C10.5633 20.8068 10.5239 20.8807 10.5079 20.961C10.492 21.0414 10.5002 21.1247 10.5315 21.2005C10.5628 21.2762 10.6158 21.3411 10.6839 21.387C10.7521 21.4328 10.8323 21.4576 10.9145 21.4583C10.971 21.4609 11.0274 21.4517 11.0802 21.4314C11.1329 21.411 11.1808 21.38 11.2209 21.3402C11.261 21.3004 11.2923 21.2528 11.3129 21.2003C11.3335 21.1478 11.343 21.0916 11.3406 21.0353H11.3357ZM4.03708 19.2643C4.03881 19.3769 4.08505 19.4844 4.16575 19.5632C4.24645 19.6421 4.35511 19.6861 4.46815 19.6857C4.57751 19.678 4.6801 19.6301 4.75608 19.5514C4.83205 19.4726 4.876 19.3686 4.87941 19.2594C4.87941 19.2043 4.86852 19.1497 4.84735 19.0988C4.82618 19.0478 4.79516 19.0016 4.75605 18.9626C4.71694 18.9236 4.67051 18.8927 4.61942 18.8716C4.56832 18.8505 4.51355 18.8397 4.45824 18.8397C4.40293 18.8397 4.34817 18.8505 4.29707 18.8716C4.24597 18.8927 4.19954 18.9236 4.16043 18.9626C4.12132 19.0016 4.0903 19.0478 4.06913 19.0988C4.04797 19.1497 4.03708 19.2043 4.03708 19.2594V19.2643ZM4.27491 17.3946C4.18968 17.3926 4.10583 17.4162 4.03419 17.4623C3.96256 17.5083 3.90643 17.5747 3.87307 17.6529C3.8397 17.7311 3.83064 17.8174 3.84704 17.9008C3.86345 17.9842 3.90457 18.0607 3.96509 18.1206C4.02561 18.1804 4.10275 18.2208 4.18654 18.2364C4.27032 18.2521 4.3569 18.2424 4.43509 18.2085C4.51327 18.1747 4.57946 18.1182 4.6251 18.0464C4.67075 17.9747 4.69374 17.8909 4.69112 17.806C4.68817 17.6973 4.64327 17.5938 4.56576 17.5172C4.48824 17.4405 4.38408 17.3966 4.27491 17.3946ZM19.5327 16.3708C19.4767 16.3679 19.4207 16.3762 19.368 16.3952C19.3153 16.4142 19.2669 16.4435 19.2256 16.4813C19.1844 16.5192 19.1512 16.5649 19.1279 16.6157C19.1046 16.6665 19.0918 16.7215 19.0901 16.7773C19.0874 16.8331 19.0958 16.8889 19.1148 16.9414C19.1338 16.9939 19.163 17.0422 19.2007 17.0835C19.2385 17.1248 19.284 17.1583 19.3348 17.182C19.3855 17.2057 19.4404 17.2192 19.4964 17.2217C19.6062 17.2214 19.712 17.1801 19.7929 17.1062C19.8739 17.0322 19.9242 16.9308 19.9341 16.8218C19.9391 16.7094 19.9 16.5994 19.8251 16.5152C19.7502 16.431 19.6453 16.3792 19.5327 16.3708ZM2.54895 6.58093C2.54852 6.52503 2.53701 6.46976 2.5151 6.41829C2.49318 6.36683 2.46128 6.32018 2.42123 6.28104C2.38117 6.24189 2.33376 6.21101 2.2817 6.19016C2.22964 6.16932 2.17397 6.15893 2.11787 6.15958C2.00442 6.15958 1.89561 6.20449 1.81539 6.28444C1.73517 6.36438 1.6901 6.47281 1.6901 6.58587C1.6901 6.69893 1.73517 6.80736 1.81539 6.8873C1.89561 6.96725 2.00442 7.01216 2.11787 7.01216C2.23195 7.01045 2.34085 6.96442 2.42137 6.88387C2.50189 6.80332 2.54767 6.69462 2.54895 6.58093ZM12.69 14.4138C12.6931 14.3013 12.6515 14.1921 12.5741 14.1101C12.4967 14.0281 12.39 13.9799 12.2771 13.976C12.2211 13.9742 12.1652 13.9838 12.113 14.004C12.0607 14.0243 12.0131 14.0548 11.973 14.0939C11.9329 14.1329 11.9011 14.1796 11.8796 14.2312C11.8581 14.2828 11.8472 14.3382 11.8477 14.3941C11.845 14.5054 11.8869 14.6132 11.964 14.6937C12.0411 14.7743 12.1472 14.821 12.2589 14.8236C12.3706 14.8263 12.4788 14.7846 12.5596 14.7077C12.6405 14.6308 12.6874 14.5251 12.69 14.4138ZM13.2747 9.27199C13.2747 9.38243 13.3187 9.48835 13.3971 9.56644C13.4754 9.64454 13.5817 9.68841 13.6925 9.68841C13.8034 9.68841 13.9097 9.64454 13.988 9.56644C14.0664 9.48835 14.1104 9.38243 14.1104 9.27199C14.1104 9.16155 14.0664 9.05564 13.988 8.97754C13.9097 8.89945 13.8034 8.85558 13.6925 8.85558C13.5817 8.85558 13.4754 8.89945 13.3971 8.97754C13.3187 9.05564 13.2747 9.16155 13.2747 9.27199ZM14.6901 21.0205C14.6341 21.0201 14.5786 21.0307 14.5268 21.052C14.475 21.0732 14.4279 21.1044 14.3884 21.144C14.3489 21.1835 14.3177 21.2305 14.2966 21.2822C14.2755 21.3339 14.265 21.3893 14.2657 21.4451C14.2654 21.501 14.2763 21.5564 14.2976 21.6081C14.3189 21.6599 14.3503 21.7069 14.3899 21.7465C14.4295 21.7861 14.4765 21.8175 14.5283 21.8389C14.5801 21.8604 14.6357 21.8714 14.6918 21.8714C14.8004 21.8647 14.9024 21.8169 14.977 21.7379C15.0515 21.6588 15.093 21.5544 15.093 21.446C15.093 21.3375 15.0515 21.2331 14.977 21.154C14.9024 21.075 14.8004 21.0272 14.6918 21.0205H14.6901ZM20.8607 16.6819C20.974 16.6806 21.0822 16.6347 21.1617 16.5542C21.2412 16.4738 21.2856 16.3652 21.2851 16.2523C21.2887 16.1946 21.2805 16.1369 21.2608 16.0825C21.2411 16.0282 21.2105 15.9784 21.1708 15.9363C21.1311 15.8942 21.0832 15.8606 21.03 15.8377C20.9768 15.8148 20.9194 15.8029 20.8615 15.8029C20.8035 15.8029 20.7461 15.8148 20.6929 15.8377C20.6397 15.8606 20.5918 15.8942 20.5521 15.9363C20.5124 15.9784 20.4818 16.0282 20.4621 16.0825C20.4425 16.1369 20.4342 16.1946 20.4378 16.2523C20.437 16.3083 20.4472 16.3638 20.4681 16.4158C20.4889 16.4678 20.5199 16.5151 20.5592 16.5551C20.5985 16.595 20.6454 16.6268 20.6972 16.6486C20.7489 16.6703 20.8045 16.6817 20.8607 16.6819ZM2.27147 10.857C2.27192 10.8006 2.26105 10.7447 2.23951 10.6926C2.21796 10.6404 2.18617 10.5931 2.14601 10.5534C2.10584 10.5137 2.05812 10.4824 2.00564 10.4613C1.95315 10.4402 1.89697 10.4298 1.8404 10.4307C1.78431 10.4311 1.72888 10.4427 1.67737 10.4649C1.62586 10.487 1.57933 10.5192 1.54053 10.5595C1.50172 10.5999 1.47143 10.6476 1.45145 10.6998C1.43147 10.752 1.4222 10.8077 1.42419 10.8636C1.42375 10.9183 1.4342 10.9725 1.45494 11.0231C1.47568 11.0737 1.5063 11.1197 1.54501 11.1584C1.58373 11.1972 1.62977 11.2278 1.68048 11.2487C1.73118 11.2696 1.78554 11.2802 1.8404 11.28C1.89681 11.2813 1.95292 11.2713 2.00539 11.2506C2.05786 11.2299 2.10561 11.1989 2.14582 11.1595C2.18603 11.12 2.21788 11.0729 2.23946 11.0209C2.26105 10.969 2.27193 10.9132 2.27147 10.857ZM6.64831 21.1834C6.70426 21.183 6.75954 21.1714 6.81088 21.1493C6.86221 21.1271 6.90853 21.0948 6.94707 21.0544C6.98562 21.014 7.01559 20.9663 7.0352 20.9141C7.05482 20.8619 7.06367 20.8063 7.06122 20.7506C7.05876 20.6413 7.01444 20.5371 6.93735 20.4594C6.86027 20.3817 6.75626 20.3363 6.64666 20.3325C6.53389 20.3355 6.42666 20.3819 6.3475 20.462C6.26835 20.5421 6.22343 20.6497 6.22219 20.7621C6.22219 20.8177 6.23323 20.8728 6.25469 20.9241C6.27614 20.9754 6.30758 21.022 6.3472 21.0612C6.38681 21.1004 6.43381 21.1313 6.48549 21.1523C6.53717 21.1733 6.59251 21.1839 6.64831 21.1834ZM17.2403 20.6683C17.3487 20.6595 17.4496 20.6097 17.5224 20.5292C17.5952 20.4487 17.6343 20.3435 17.6318 20.2351C17.6292 20.1268 17.5852 20.0235 17.5088 19.9464C17.4323 19.8694 17.3291 19.8244 17.2204 19.8206C17.112 19.8294 17.0111 19.8791 16.9383 19.9597C16.8655 20.0402 16.8264 20.1454 16.8289 20.2538C16.8315 20.3621 16.8755 20.4654 16.952 20.5425C17.0284 20.6195 17.1316 20.6645 17.2403 20.6683ZM21.5494 7.81372C21.4935 7.81325 21.438 7.82403 21.3864 7.84539C21.3347 7.86675 21.2879 7.89827 21.2488 7.93806C21.2096 7.97785 21.1789 8.02509 21.1585 8.07697C21.138 8.12885 21.1283 8.1843 21.1299 8.24001C21.1224 8.29841 21.1276 8.35772 21.1449 8.414C21.1623 8.47027 21.1915 8.52222 21.2305 8.56639C21.2696 8.61056 21.3176 8.64593 21.3715 8.67016C21.4253 8.6944 21.4837 8.70693 21.5428 8.70693C21.6019 8.70693 21.6603 8.6944 21.7141 8.67016C21.7679 8.64593 21.816 8.61056 21.855 8.56639C21.8941 8.52222 21.9233 8.47027 21.9406 8.414C21.958 8.35772 21.9631 8.29841 21.9557 8.24001C21.9586 8.18506 21.9503 8.1301 21.9311 8.07848C21.912 8.02686 21.8826 7.97966 21.8445 7.93977C21.8065 7.89988 21.7607 7.86812 21.71 7.84645C21.6592 7.82478 21.6046 7.81364 21.5494 7.81372ZM16.2096 20.0379C16.2112 19.9821 16.2014 19.9266 16.1807 19.8748C16.16 19.8229 16.1289 19.7758 16.0894 19.7364C16.0498 19.697 16.0025 19.666 15.9505 19.6454C15.8985 19.6248 15.8428 19.6149 15.7868 19.6165C15.7309 19.6182 15.6759 19.631 15.625 19.6541C15.5741 19.6772 15.5284 19.7101 15.4904 19.751C15.4524 19.7919 15.423 19.84 15.4039 19.8923C15.3847 19.9447 15.3762 20.0003 15.3789 20.056C15.3728 20.1145 15.3794 20.1736 15.398 20.2294C15.4167 20.2852 15.447 20.3364 15.487 20.3796C15.5271 20.4228 15.5759 20.457 15.6302 20.48C15.6845 20.503 15.7431 20.5142 15.8021 20.513C15.8611 20.5117 15.9191 20.4979 15.9723 20.4725C16.0256 20.4472 16.0728 20.4108 16.1109 20.3659C16.149 20.321 16.177 20.2685 16.1932 20.2119C16.2094 20.1554 16.2133 20.0961 16.2047 20.0379H16.2096ZM22.0234 10.4225C21.9675 10.4223 21.9121 10.4332 21.8604 10.4546C21.8088 10.476 21.762 10.5075 21.7227 10.5472C21.6835 10.587 21.6526 10.6341 21.6319 10.6859C21.6112 10.7377 21.6011 10.793 21.6022 10.8488C21.6079 10.958 21.6542 11.0611 21.732 11.1381C21.8099 11.2151 21.9138 11.2604 22.0234 11.2652C22.1366 11.2656 22.2453 11.2214 22.3258 11.1421C22.4063 11.0628 22.452 10.955 22.4528 10.8422C22.4528 10.7862 22.4416 10.7308 22.4198 10.6793C22.3981 10.6277 22.3662 10.581 22.326 10.5419C22.2858 10.5028 22.2382 10.4721 22.186 10.4516C22.1337 10.431 22.0779 10.4212 22.0218 10.4225H22.0234ZM0.961726 11.5746C0.905767 11.5748 0.850399 11.586 0.798782 11.6076C0.747165 11.6291 0.700311 11.6606 0.660895 11.7002C0.62148 11.7397 0.590274 11.7867 0.569059 11.8383C0.547845 11.8899 0.537038 11.9451 0.537256 12.0009C0.5351 12.0587 0.544823 12.1164 0.565827 12.1703C0.586832 12.2242 0.618674 12.2733 0.659402 12.3146C0.700129 12.3558 0.748882 12.3883 0.802669 12.4101C0.856455 12.4319 0.91414 12.4425 0.972184 12.4412C1.03023 12.44 1.08741 12.4269 1.14021 12.4029C1.19301 12.3788 1.24033 12.3443 1.27925 12.3014C1.31818 12.2584 1.34789 12.208 1.36656 12.1533C1.38524 12.0985 1.39248 12.0405 1.38785 11.9828C1.38075 11.8744 1.33266 11.7726 1.25328 11.6981C1.1739 11.6236 1.06913 11.5818 0.960074 11.5812L0.961726 11.5746ZM9.7154 21.7052C9.71472 21.5931 9.67107 21.4855 9.59339 21.4044C9.51571 21.3233 9.40987 21.2749 9.29754 21.269C9.18465 21.2733 9.07787 21.3212 8.99986 21.4027C8.92184 21.4841 8.87873 21.5926 8.87967 21.7052C8.87967 21.8156 8.9237 21.9215 9.00206 21.9996C9.08043 22.0777 9.18672 22.1216 9.29754 22.1216C9.40836 22.1216 9.51465 22.0777 9.59301 21.9996C9.67138 21.9215 9.7154 21.8156 9.7154 21.7052ZM12.4918 21.9093C12.4918 21.7969 12.4471 21.6892 12.3676 21.6096C12.288 21.53 12.1801 21.4851 12.0673 21.4846C11.9547 21.4914 11.8493 21.542 11.7736 21.6253C11.698 21.7087 11.6582 21.8184 11.6627 21.9307C11.6593 21.9878 11.6678 22.045 11.6877 22.0987C11.7077 22.1523 11.7386 22.2013 11.7785 22.2424C11.8184 22.2836 11.8665 22.316 11.9196 22.3376C11.9728 22.3593 12.0299 22.3697 12.0873 22.3682C12.1447 22.3667 12.2012 22.3534 12.2531 22.329C12.3051 22.3046 12.3514 22.2697 12.3891 22.2266C12.4268 22.1835 12.4551 22.133 12.4722 22.0783C12.4893 22.0237 12.4949 21.9662 12.4885 21.9093H12.4918ZM1.85691 14.6097C1.8597 14.554 1.85084 14.4984 1.8309 14.4464C1.81095 14.3943 1.78036 14.347 1.74105 14.3073C1.70175 14.2677 1.65461 14.2367 1.60262 14.2162C1.55062 14.1957 1.49492 14.1862 1.43905 14.1883C1.38478 14.1858 1.33058 14.1945 1.27981 14.2137C1.22904 14.233 1.18278 14.2624 1.14391 14.3002C1.10503 14.3381 1.07437 14.3834 1.05383 14.4335C1.03329 14.4837 1.0233 14.5374 1.02449 14.5916C1.02042 14.6472 1.02784 14.7031 1.04629 14.7557C1.06473 14.8084 1.09381 14.8567 1.13173 14.8978C1.16965 14.9388 1.2156 14.9716 1.26675 14.9943C1.31791 15.0169 1.37317 15.0289 1.42914 15.0294C1.48518 15.0309 1.54096 15.0212 1.59313 15.0007C1.6453 14.9803 1.69279 14.9495 1.73274 14.9103C1.77269 14.8711 1.80428 14.8243 1.82562 14.7726C1.84696 14.721 1.8576 14.6655 1.85691 14.6097ZM5.49052 4.24045C5.49183 4.15736 5.46826 4.07576 5.42282 4.00608C5.37738 3.9364 5.31213 3.88179 5.2354 3.84923C5.15868 3.81668 5.07396 3.80765 4.99206 3.8233C4.91016 3.83894 4.83479 3.87856 4.77559 3.93709C4.71639 3.99562 4.67604 4.0704 4.65968 4.15189C4.64333 4.23338 4.65171 4.31787 4.68377 4.39459C4.71583 4.47131 4.7701 4.53676 4.83966 4.5826C4.90922 4.62843 4.99091 4.65257 5.0743 4.65193C5.12946 4.65214 5.18411 4.64148 5.2351 4.62055C5.2861 4.59961 5.33243 4.56883 5.37143 4.52996C5.41043 4.4911 5.44132 4.44493 5.46233 4.39411C5.48333 4.34329 5.49404 4.28883 5.49382 4.23386L5.49052 4.24045ZM8.71451 1.39632C8.71191 1.31443 8.68513 1.23513 8.63751 1.16833C8.5899 1.10154 8.52357 1.05023 8.44683 1.02083C8.3701 0.991422 8.28636 0.985227 8.20611 1.00302C8.12586 1.02081 8.05266 1.0618 7.99567 1.12085C7.93868 1.17991 7.90044 1.2544 7.88573 1.33501C7.87103 1.41561 7.88051 1.49875 7.91299 1.57402C7.94547 1.64928 7.99951 1.71332 8.06834 1.75813C8.13717 1.80293 8.21774 1.82651 8.29995 1.8259C8.35695 1.82743 8.41363 1.81704 8.46635 1.7954C8.51907 1.77375 8.56665 1.74134 8.60603 1.70024C8.6454 1.65914 8.67569 1.61028 8.69494 1.55679C8.7142 1.50331 8.72199 1.4464 8.71781 1.38973L8.71451 1.39632ZM19.7722 18.4446C19.7735 18.3886 19.7637 18.3329 19.7433 18.2806C19.7229 18.2284 19.6923 18.1807 19.6533 18.1403C19.6143 18.0999 19.5676 18.0676 19.5161 18.0453C19.4645 18.0229 19.409 18.011 19.3527 18.0101C19.2425 18.013 19.1375 18.0577 19.0592 18.1351C18.981 18.2125 18.9353 18.3167 18.9315 18.4265C18.9301 18.5366 18.9714 18.6429 19.0468 18.7233C19.1222 18.8036 19.2259 18.8518 19.3362 18.8578C19.3924 18.8607 19.4486 18.8521 19.5014 18.8327C19.5542 18.8132 19.6025 18.7833 19.6433 18.7446C19.6841 18.7059 19.7166 18.6594 19.7387 18.6078C19.7609 18.5563 19.7723 18.5007 19.7722 18.4446ZM17.9075 18.1961C17.7945 18.1961 17.6861 18.2409 17.6062 18.3205C17.5263 18.4001 17.4814 18.5081 17.4814 18.6208C17.4814 18.7334 17.5263 18.8414 17.6062 18.921C17.6861 19.0007 17.7945 19.0454 17.9075 19.0454C17.9637 19.0439 18.019 19.0314 18.0704 19.0086C18.1217 18.9858 18.168 18.9531 18.2067 18.9124C18.2453 18.8718 18.2756 18.8239 18.2956 18.7716C18.3157 18.7193 18.3253 18.6636 18.3237 18.6076C18.322 18.4984 18.2775 18.3943 18.1997 18.3174C18.122 18.2405 18.0171 18.197 17.9075 18.1961ZM11.3241 0.930525C11.3263 0.874915 11.3174 0.819419 11.298 0.767244C11.2786 0.715068 11.249 0.667246 11.2109 0.626539C11.1728 0.585833 11.127 0.553048 11.0761 0.530078C11.0252 0.507109 10.9703 0.494409 10.9145 0.492714C10.8586 0.491717 10.8031 0.502232 10.7514 0.523603C10.6998 0.544973 10.6531 0.576737 10.6143 0.616907C10.5756 0.657077 10.5456 0.704789 10.5262 0.757054C10.5068 0.809319 10.4984 0.865013 10.5016 0.92065C10.4984 0.97766 10.507 1.03471 10.5269 1.08826C10.5468 1.14181 10.5775 1.19071 10.6172 1.23192C10.6568 1.27314 10.7046 1.30578 10.7574 1.32784C10.8103 1.34989 10.8671 1.36087 10.9244 1.36011C11.0339 1.35415 11.1368 1.30602 11.2114 1.22586C11.286 1.14571 11.3264 1.03981 11.3241 0.930525ZM6.52279 19.4108C6.5233 19.3011 6.48104 19.1955 6.40493 19.1163C6.32882 19.0371 6.22481 18.9904 6.11483 18.9861C6.00164 18.9857 5.8928 19.0296 5.81184 19.1085C5.73087 19.1873 5.68427 19.2947 5.68211 19.4075C5.68243 19.5198 5.72623 19.6277 5.80438 19.7086C5.88253 19.7896 5.989 19.8374 6.10162 19.842C6.21437 19.839 6.32149 19.7923 6.40016 19.7117C6.47883 19.6312 6.52283 19.5232 6.52279 19.4108ZM21.8153 13.1876C21.7023 13.185 21.5929 13.2272 21.5111 13.305C21.4293 13.3828 21.3819 13.4898 21.3793 13.6024C21.3766 13.715 21.419 13.8241 21.4971 13.9055C21.5751 13.987 21.6825 14.0343 21.7955 14.0369C21.9085 14.0391 22.0179 13.9968 22.0999 13.9192C22.1818 13.8415 22.2297 13.7348 22.2332 13.6221C22.2333 13.51 22.1898 13.4021 22.1119 13.3211C22.0341 13.2401 21.9278 13.1923 21.8153 13.1876ZM10.2968 8.43752C10.2968 8.54883 10.3412 8.65558 10.4201 8.73429C10.4991 8.813 10.6062 8.85722 10.7179 8.85722C10.8296 8.85722 10.9368 8.813 11.0158 8.73429C11.0947 8.65558 11.1391 8.54883 11.1391 8.43752C11.1391 8.3262 11.0947 8.21945 11.0158 8.14074C10.9368 8.06203 10.8296 8.01781 10.7179 8.01781C10.6062 8.01781 10.4991 8.06203 10.4201 8.14074C10.3412 8.21945 10.2968 8.3262 10.2968 8.43752ZM9.28928 14.0007C9.40172 14.0003 9.50944 13.9556 9.58895 13.8763C9.66846 13.7971 9.71332 13.6897 9.71375 13.5777C9.7129 13.4655 9.66801 13.358 9.58868 13.2784C9.50936 13.1987 9.40189 13.1531 9.28928 13.1514C9.17669 13.1548 9.07001 13.2024 8.99239 13.2838C8.91478 13.3651 8.87249 13.4737 8.87472 13.5859C8.876 13.6952 8.92003 13.7998 8.99746 13.8772C9.07488 13.9547 9.17958 13.999 9.28928 14.0007ZM2.33589 8.77822C2.44595 8.77873 2.5519 8.73662 2.6314 8.66077C2.7109 8.58493 2.75773 8.48127 2.76201 8.37168C2.76378 8.25699 2.71998 8.14626 2.64016 8.06363C2.56033 7.981 2.45096 7.93317 2.33589 7.93058C2.22576 7.93012 2.11986 7.97285 2.04107 8.04952C1.96227 8.1262 1.91689 8.23068 1.91472 8.34041C1.9113 8.39726 1.9197 8.4542 1.93942 8.50766C1.95913 8.56112 1.98973 8.60994 2.02928 8.65105C2.06883 8.69217 2.11648 8.72469 2.16925 8.74657C2.22201 8.76845 2.27875 8.77923 2.33589 8.77822ZM19.9258 5.69708C19.923 5.7543 19.9319 5.81149 19.9521 5.86514C19.9722 5.91879 20.0032 5.96776 20.0431 6.00904C20.0829 6.05031 20.1309 6.08301 20.1839 6.10512C20.2369 6.12723 20.2939 6.13829 20.3514 6.13762C20.4089 6.13694 20.4657 6.12455 20.5182 6.10119C20.5707 6.07784 20.6178 6.04402 20.6567 6.00183C20.6956 5.95963 20.7254 5.90995 20.7443 5.85584C20.7631 5.80173 20.7707 5.74434 20.7665 5.6872C20.7694 5.62998 20.7604 5.57279 20.7403 5.51914C20.7201 5.46549 20.6891 5.41652 20.6493 5.37525C20.6094 5.33397 20.5615 5.30128 20.5084 5.27916C20.4554 5.25705 20.3984 5.24599 20.3409 5.24666C20.2834 5.24734 20.2267 5.25973 20.1742 5.28309C20.1217 5.30644 20.0745 5.34026 20.0357 5.38245C19.9968 5.42465 19.967 5.47433 19.9481 5.52844C19.9292 5.58255 19.9216 5.63994 19.9258 5.69708ZM14.558 1.87034C14.4484 1.87242 14.3438 1.91651 14.266 1.99345C14.1882 2.07039 14.1431 2.17426 14.1401 2.28346C14.1401 2.39886 14.186 2.50955 14.2677 2.5913C14.3495 2.67305 14.4604 2.71919 14.5762 2.71963C14.6883 2.71049 14.7929 2.65945 14.8688 2.57673C14.9448 2.494 14.9866 2.38572 14.9858 2.27359C14.9811 2.16415 14.9338 2.06084 14.8539 1.98556C14.7741 1.91028 14.6679 1.86896 14.558 1.87034ZM3.06591 17.146C3.06537 17.0379 3.02391 16.9339 2.94982 16.8549C2.87573 16.7759 2.77445 16.7276 2.66622 16.7197C2.58088 16.7158 2.49631 16.7374 2.4234 16.7818C2.3505 16.8262 2.2926 16.8913 2.25716 16.9687C2.22172 17.0462 2.21037 17.1325 2.22457 17.2164C2.23877 17.3004 2.27787 17.3782 2.33683 17.4398C2.39579 17.5014 2.47191 17.544 2.55538 17.5621C2.63886 17.5802 2.72586 17.573 2.80519 17.5414C2.88452 17.5098 2.95253 17.4552 3.00047 17.3848C3.04841 17.3143 3.07408 17.2312 3.07417 17.146H3.06591ZM8.42217 20.9711C8.53505 20.969 8.64249 20.9224 8.72108 20.8416C8.79966 20.7608 8.84302 20.6524 8.84169 20.5399C8.84037 20.4281 8.79457 20.3215 8.71434 20.2434C8.63412 20.1653 8.52605 20.1222 8.41391 20.1235C8.30177 20.1248 8.19475 20.1704 8.11639 20.2504C8.03802 20.3303 7.99473 20.438 7.99605 20.5498C7.99605 20.6054 8.00709 20.6604 8.02855 20.7118C8.05 20.7631 8.08144 20.8097 8.12106 20.8489C8.16067 20.888 8.20767 20.919 8.25935 20.94C8.31103 20.961 8.36637 20.9715 8.42217 20.9711ZM1.17974 8.80785C1.07196 8.81456 0.970791 8.86196 0.896846 8.94039C0.8229 9.01883 0.781736 9.1224 0.781736 9.23002C0.781736 9.33764 0.8229 9.44122 0.896846 9.51965C0.970791 9.59809 1.07196 9.64549 1.17974 9.6522C1.28753 9.64549 1.38869 9.59809 1.46264 9.51965C1.53658 9.44122 1.57775 9.33764 1.57775 9.23002C1.57775 9.1224 1.53658 9.01883 1.46264 8.94039C1.38869 8.86196 1.28753 8.81456 1.17974 8.80785ZM14.4523 12.6691C14.538 12.6734 14.6231 12.652 14.6964 12.6077C14.7698 12.5633 14.8282 12.4981 14.864 12.4203C14.8998 12.3426 14.9115 12.256 14.8974 12.1716C14.8833 12.0872 14.8442 12.009 14.7851 11.947C14.726 11.885 14.6496 11.8421 14.5658 11.8237C14.4819 11.8054 14.3945 11.8126 14.3148 11.8442C14.2351 11.8759 14.1667 11.9306 14.1185 12.0014C14.0703 12.0722 14.0445 12.1557 14.0443 12.2412C14.0473 12.3502 14.0906 12.4542 14.1659 12.5332C14.2412 12.6122 14.3433 12.6606 14.4523 12.6691ZM8.51631 11.0232C8.62904 11.0232 8.73718 10.9787 8.81705 10.8994C8.89691 10.8202 8.942 10.7126 8.94244 10.6002C8.94168 10.5451 8.93003 10.4907 8.90816 10.4401C8.8863 10.3894 8.85464 10.3436 8.81499 10.3052C8.77535 10.2667 8.72849 10.2364 8.6771 10.216C8.62571 10.1956 8.5708 10.1855 8.51549 10.1863C8.46018 10.1871 8.40556 10.1987 8.35475 10.2204C8.30395 10.2422 8.25794 10.2738 8.21937 10.3133C8.1808 10.3528 8.15041 10.3995 8.12995 10.4507C8.10948 10.5019 8.09934 10.5566 8.1001 10.6118C8.10097 10.7213 8.14515 10.8262 8.22307 10.9035C8.30098 10.9808 8.40635 11.0245 8.51631 11.0249V11.0232ZM14.1055 1.12968C14.1061 1.07521 14.096 1.02115 14.0757 0.970575C14.0554 0.920003 14.0253 0.873914 13.9871 0.83494C13.9489 0.795965 13.9034 0.76487 13.8531 0.743428C13.8029 0.721986 13.7489 0.710618 13.6942 0.709974C13.5807 0.711501 13.4725 0.757879 13.3934 0.838905C13.3143 0.91993 13.2707 1.02897 13.2722 1.14202C13.2737 1.25508 13.3203 1.36291 13.4016 1.44177C13.4829 1.52064 13.5923 1.56408 13.7058 1.56255C13.8159 1.55659 13.9193 1.50799 13.994 1.42713C14.0686 1.34626 14.1086 1.23953 14.1055 1.12968ZM21.1414 12.4074C21.1973 12.408 21.2527 12.3971 21.3041 12.3754C21.3556 12.3538 21.402 12.3218 21.4406 12.2816C21.4791 12.2413 21.509 12.1935 21.5283 12.1413C21.5475 12.0891 21.5559 12.0334 21.5527 11.9779C21.5501 11.8958 21.5232 11.8164 21.4754 11.7496C21.4277 11.6827 21.3611 11.6314 21.2842 11.6021C21.2073 11.5728 21.1234 11.5668 21.0431 11.5849C20.9627 11.6029 20.8895 11.6443 20.8327 11.7036C20.7758 11.763 20.7379 11.8378 20.7235 11.9186C20.7092 11.9994 20.7192 12.0827 20.7522 12.1579C20.7851 12.2331 20.8397 12.2969 20.9089 12.3413C20.9782 12.3857 21.0591 12.4087 21.1414 12.4074ZM4.05029 4.4001C4.05867 4.34062 4.05404 4.28003 4.03671 4.2225C4.01939 4.16496 3.98977 4.11184 3.94991 4.06679C3.91004 4.02173 3.86087 3.98581 3.80576 3.96147C3.75065 3.93714 3.69091 3.92498 3.63063 3.92582C3.57036 3.92666 3.51099 3.94048 3.45658 3.96635C3.40218 3.99221 3.35403 4.02949 3.31545 4.07564C3.27686 4.12179 3.24875 4.17571 3.23305 4.23371C3.21735 4.2917 3.21442 4.3524 3.22447 4.41162C3.22648 4.52149 3.2705 4.62646 3.34755 4.70507C3.4246 4.78369 3.52885 4.83003 3.63903 4.83462C3.75104 4.83033 3.85688 4.7824 3.93379 4.70114C4.0107 4.61988 4.05253 4.51178 4.05029 4.4001ZM18.5219 3.17061C18.4118 3.17232 18.3067 3.21679 18.2289 3.29456C18.1512 3.37233 18.107 3.47726 18.1057 3.58702C18.1065 3.69988 18.1512 3.80804 18.2304 3.88877C18.3095 3.96949 18.417 4.01649 18.5302 4.0199C18.5864 4.01819 18.6417 4.00547 18.6929 3.98246C18.7442 3.95945 18.7904 3.9266 18.8289 3.88579C18.8674 3.84497 18.8974 3.797 18.9173 3.74461C18.9372 3.69221 18.9465 3.63643 18.9448 3.58044C18.9426 3.47042 18.897 3.36569 18.8178 3.28897C18.7387 3.21225 18.6323 3.16972 18.5219 3.17061Z" fill="black"/>
</svg>
